<svg width="137" height="44" viewBox="0 0 137 44" fill="none" xmlns="http://www.w3.org/2000/svg">
<circle cx="22" cy="22" r="21" stroke="#FF9180" stroke-width="2"/>
<rect x="13" y="9" width="18.7059" height="26.4706" stroke="#FF9180" stroke-width="2"/>
<rect x="18" y="14" width="8.35294" height="16.1176" stroke="#FF9180" stroke-width="2"/>
<path d="M65.64 30H67.02L66.94 17.56L71.84 30H73.38L78.3 17.56L78.22 30H79.58V16H77.56L72.62 28.66L67.7 16H65.64V30ZM87.1261 30.3C90.0261 30.3 92.1261 28.08 92.1261 25.04C92.1261 22 90.0261 19.78 87.1261 19.78C84.2261 19.78 82.1261 22 82.1261 25.04C82.1261 28.08 84.2261 30.3 87.1261 30.3ZM87.1261 29.16C84.9661 29.16 83.4861 27.48 83.4861 25.04C83.4861 22.62 84.9661 20.92 87.1261 20.92C89.2661 20.92 90.7661 22.62 90.7661 25.04C90.7661 27.48 89.2661 29.16 87.1261 29.16ZM99.4839 19.82C97.7639 19.82 96.3839 20.72 95.6439 22.22V16H94.3039V27.96V30H95.6439V27.96V27.94C96.3839 29.4 97.7639 30.28 99.4839 30.28C102.324 30.28 104.304 28.14 104.304 25.1C104.304 21.98 102.324 19.82 99.4839 19.82ZM99.2439 29.16C97.0639 29.16 95.5439 27.5 95.5439 25.1C95.5439 22.64 97.0639 20.92 99.2439 20.92C101.424 20.92 102.944 22.62 102.944 25.1C102.944 27.5 101.424 29.16 99.2439 29.16ZM107.171 18.12C107.791 18.12 108.271 17.64 108.271 17.02C108.271 16.38 107.791 15.9 107.171 15.9C106.531 15.9 106.051 16.38 106.051 17.02C106.051 17.64 106.531 18.12 107.171 18.12ZM106.491 30H107.831V20.08H106.491V30ZM112.577 30.1C113.077 30.1 113.557 30 113.917 29.84L113.837 28.72C113.577 28.84 113.277 28.92 112.997 28.92C112.157 28.92 111.757 28.38 111.757 27.3V25.56V16H110.417V25.56V27.54C110.417 29.28 111.257 30.1 112.577 30.1ZM124.828 24.9C124.828 21.88 122.828 19.78 120.188 19.78C117.348 19.78 115.368 22.04 115.368 25.04C115.368 28.14 117.468 30.3 120.288 30.3C122.588 30.3 124.408 28.9 124.628 27.04L123.428 26.94C123.228 28.32 121.848 29.26 120.288 29.26C118.168 29.26 116.728 27.58 116.728 25.38H124.788C124.808 25.2 124.828 25.02 124.828 24.9ZM116.728 24.5C116.808 22.32 118.268 20.8 120.188 20.8C122.148 20.8 123.508 22.44 123.508 24.5H116.728Z" fill="white"/>
<path d="M136.12 21.68H130.48V20.6L132.78 18.36C133.327 17.84 133.733 17.42 134 17.1C134.28 16.7667 134.467 16.4733 134.56 16.22C134.667 15.9533 134.72 15.6733 134.72 15.38C134.72 14.9533 134.593 14.6333 134.34 14.42C134.1 14.2067 133.78 14.1 133.38 14.1C132.98 14.1 132.613 14.18 132.28 14.34C131.96 14.4867 131.627 14.6933 131.28 14.96L130.58 14.04C130.967 13.7067 131.387 13.44 131.84 13.24C132.307 13.04 132.827 12.94 133.4 12.94C134.253 12.94 134.92 13.1533 135.4 13.58C135.893 13.9933 136.14 14.5667 136.14 15.3C136.14 15.9533 135.94 16.54 135.54 17.06C135.153 17.58 134.587 18.1933 133.84 18.9L132.22 20.44H136.12V21.68Z" fill="white"/>
</svg>
