<svg width="57" height="57" viewBox="0 0 57 57" fill="none" xmlns="http://www.w3.org/2000/svg">
<path d="M0.883301 4.79274C0.883301 2.57785 2.72434 0.781251 4.9955 0.781251H52.418C54.6891 0.781251 56.5303 2.57785 56.5303 4.79274V52.7698C56.5303 54.9854 54.6891 56.7812 52.418 56.7812H4.9955C2.72434 56.7812 0.883301 54.9854 0.883301 52.7698V4.79274Z" fill="#101010"/>
<path fill-rule="evenodd" clip-rule="evenodd" d="M17.7516 47.6562V22.3691H9.34659V47.6562H17.7516ZM13.549 18.9166C16.48 18.9166 18.3043 16.9748 18.3043 14.5482C18.2497 12.0669 16.48 10.179 13.6046 10.179C10.7295 10.179 8.84973 12.0669 8.84973 14.5482C8.84973 16.9748 10.6736 18.9166 13.4943 18.9166H13.549Z" fill="white"/>
<path fill-rule="evenodd" clip-rule="evenodd" d="M22.4023 47.6562H30.8072V33.5348C30.8072 32.7791 30.8619 32.0241 31.0838 31.4838C31.6914 29.9738 33.0744 28.4099 35.3963 28.4099C38.4376 28.4099 39.6542 30.7288 39.6542 34.1282V47.6562H48.0585V33.157C48.0585 25.3899 43.9119 21.7757 38.3821 21.7757C33.8479 21.7757 31.8573 24.3101 30.7513 26.0364H30.8075V22.3691H22.4026C22.5129 24.7419 22.4023 47.6562 22.4023 47.6562Z" fill="white"/>
</svg>
