<svg width="116" height="25" viewBox="0 0 116 25" fill="none" xmlns="http://www.w3.org/2000/svg">
<path d="M34.5039 10.1476H37.1407V24.0761H34.5039V10.1476Z" fill="white"/>
<path d="M52.4961 10.1476H55.0864V24.0761H52.4961V10.1476Z" fill="white"/>
<path d="M1.37305 10.1477H3.96331V24.0762H1.37305V10.1477Z" fill="white"/>
<path d="M18.621 15.5296V24.0759H16.0307V15.9019C16.0307 13.3271 14.8364 11.9157 12.7115 11.9157C10.3383 11.9157 9.01995 13.6684 9.01995 16.9101V24.0759H6.42969V10.1475H9.01995L8.9424 13.7459C9.43874 11.2642 11.1139 9.77521 13.5645 9.77521C16.6977 9.77521 18.621 11.9622 18.621 15.5296Z" fill="white"/>
<path d="M18.9453 10.1477H21.6597L25.9251 21.4239L30.1905 10.1477H32.8428L27.228 24.0762H24.5136L18.9453 10.1477Z" fill="white"/>
<path d="M39.0332 19.64L41.4373 19.578C41.5149 21.4548 42.9419 22.7111 44.9582 22.7111C46.773 22.7111 47.9673 21.8425 47.9673 20.5862C47.9673 19.3608 47.1918 18.7404 45.4546 18.3837L43.3917 17.9959C40.7083 17.5151 39.483 16.2587 39.483 14.0252C39.483 11.4505 41.6545 9.66675 44.679 9.66675C47.8897 9.66675 50.1698 11.6831 50.2628 14.5526L47.9208 14.6301C47.8432 12.7844 46.5248 11.497 44.679 11.497C43.1435 11.497 41.9647 12.4121 41.9647 13.7305C41.9647 14.8163 42.5851 15.4677 43.888 15.7469L45.9199 16.1347C48.991 16.662 50.4645 18.058 50.4645 20.2605C50.4645 22.8042 48.1999 24.5259 44.9427 24.5259C41.5459 24.5414 39.1108 22.5405 39.0332 19.64Z" fill="white"/>
<path d="M72.4881 17.1739C72.4881 21.4393 69.7583 24.4328 65.7565 24.4328C63.554 24.4328 61.8169 23.4246 60.7621 21.6719V24.0761H58.1719V21.1136V3.5556H60.7621V12.5983C61.8169 10.8145 63.554 9.77534 65.7565 9.77534C69.7583 9.77534 72.4881 12.8309 72.4881 17.1739ZM69.8979 17.1739C69.8979 14.0407 67.9745 11.9313 65.2447 11.9313C62.5148 11.9313 60.607 14.0873 60.607 17.1739C60.607 20.1829 62.4993 22.2768 65.2447 22.2768C67.9745 22.2924 69.8979 20.1984 69.8979 17.1739Z" fill="white"/>
<path d="M74.2266 20.1984V17.5461V3.5556H76.8168V17.5306V19.6866C76.8168 21.1911 77.3752 21.9201 78.554 21.9201C78.8952 21.9201 79.252 21.8426 79.5932 21.703L79.6708 23.8744C79.1434 24.0761 78.4454 24.2157 77.6854 24.2157C75.638 24.2157 74.2266 22.9903 74.2266 20.1984Z" fill="white"/>
<path d="M93.7386 17.7944H82.8812C82.9122 20.4467 84.6959 22.5096 87.2707 22.5096C89.256 22.5096 90.9311 21.3308 91.2103 19.6401L93.5059 19.8418C93.2267 22.5251 90.6364 24.4949 87.2862 24.4949C83.2379 24.4949 80.2754 21.4549 80.2754 17.0964C80.2754 12.8775 83.0983 9.72888 87.1621 9.72888C90.9932 9.72888 93.8006 12.6914 93.8006 16.9258C93.7851 17.174 93.7851 17.4842 93.7386 17.7944ZM91.2569 16.1503C91.2569 13.6375 89.5507 11.6832 87.1311 11.6832C84.7579 11.6832 83.0053 13.4979 82.8812 16.1503H91.2569Z" fill="white"/>
<path d="M53.8144 8.22372C55.262 8.22372 56.4355 7.05022 56.4355 5.60264C56.4355 4.15506 55.262 2.98157 53.8144 2.98157C52.3669 2.98157 51.1934 4.15506 51.1934 5.60264C51.1934 7.05022 52.3669 8.22372 53.8144 8.22372Z" fill="white"/>
<path d="M35.8683 3.13678C34.5113 3.13678 33.4023 4.24575 33.4023 5.60278C33.4023 6.95981 34.5113 8.06877 35.8683 8.06877C37.2254 8.06877 38.3343 6.9744 38.3343 5.60278C38.3343 4.24575 37.2254 3.13678 35.8683 3.13678ZM34.0298 5.60278C34.0298 4.71268 34.6718 3.96851 35.5036 3.79341V7.41215C34.6572 7.23705 34.0298 6.49287 34.0298 5.60278ZM36.2331 7.41215V3.79341C37.0795 3.96851 37.7069 4.71268 37.7069 5.60278C37.7215 6.49287 37.0795 7.23705 36.2331 7.41215Z" fill="white" stroke="white" stroke-width="0.282068" stroke-miterlimit="10"/>
<path d="M2.62885 3.91196C3.56217 3.91196 4.32439 4.67194 4.32439 5.60252C4.32439 6.5331 3.56217 7.29308 2.62885 7.29308C1.69553 7.29308 0.933321 6.5331 0.933321 5.60252C0.933321 4.67194 1.69553 3.91196 2.62885 3.91196ZM2.62885 2.98138C1.18221 2.98138 0 4.16012 0 5.60252C0 7.04492 1.18221 8.22366 2.62885 8.22366C4.0755 8.22366 5.24215 7.04492 5.24215 5.60252C5.24215 4.16012 4.0755 2.98138 2.62885 2.98138Z" fill="white"/>
<path d="M94.6836 10.1635V8.53705V0.500549H96.2909V8.51792V9.8382C96.2909 10.7758 96.6353 11.2159 97.3624 11.2159C97.5729 11.2159 97.7834 11.1585 97.9939 11.0819L98.0513 12.4214C97.726 12.5362 97.2859 12.6318 96.8267 12.6318C95.5638 12.6318 94.6836 11.8856 94.6836 10.1635Z" fill="white"/>
<path d="M98.5879 10.3731C98.5879 8.74667 99.9273 7.77081 102.472 7.57947L104.309 7.42639V7.06284C104.309 5.78082 103.582 4.97717 102.357 4.97717C101.248 4.97717 100.444 5.57034 100.387 6.87149L98.8366 6.85236C98.9132 4.90064 100.444 3.67603 102.357 3.67603C104.596 3.67603 105.897 4.99631 105.897 7.12024V10.067C105.897 11.0045 105.993 11.923 106.127 12.5353H104.558C104.462 12.1718 104.386 11.5786 104.386 10.5071H104.328C104.079 11.8082 102.874 12.6884 101.343 12.6884C99.6786 12.7075 98.5879 11.7891 98.5879 10.3731ZM104.328 9.07196V8.30658L102.683 8.44052C101.037 8.57446 100.176 9.1485 100.176 10.2392C100.176 11.0811 100.903 11.636 101.936 11.636C103.314 11.6551 104.328 10.5836 104.328 9.07196Z" fill="white"/>
<path d="M116 8.30689C116 10.9474 114.316 12.7844 111.848 12.7844C110.49 12.7844 109.418 12.1721 108.767 11.0814V12.5547H107.16V10.737V0.5H108.767V5.47498C109.418 4.36517 110.49 3.73373 111.848 3.73373C114.316 3.73373 116 5.60892 116 8.30689ZM114.393 8.30689C114.393 6.3743 113.207 5.07315 111.523 5.07315C109.839 5.07315 108.672 6.39343 108.672 8.30689C108.672 10.1629 109.839 11.4641 111.523 11.4641C113.207 11.4449 114.393 10.1629 114.393 8.30689Z" fill="white"/>
</svg>
