<svg width="69" height="56" viewBox="0 0 69 56" fill="none" xmlns="http://www.w3.org/2000/svg">
<path d="M60.9275 14.0787C60.9687 14.6744 60.9687 15.2701 60.9687 15.8713C60.9687 34.1893 47.0236 55.3156 21.5243 55.3156V55.3046C13.9918 55.3156 6.61571 53.1579 0.274536 49.0897C1.36983 49.2215 2.47061 49.2873 3.57414 49.2901C9.8165 49.2956 15.8804 47.2011 20.7914 43.3442C14.8592 43.2317 9.65728 39.3638 7.84003 33.7172C9.91807 34.1179 12.0592 34.0356 14.0989 33.4783C7.6314 32.1717 2.97846 26.4893 2.97846 19.8901V19.7144C4.90552 20.7877 7.06316 21.3834 9.27022 21.4493C3.17885 17.3783 1.3012 9.2748 4.97963 2.93911C12.0181 11.5999 22.4028 16.865 33.5506 17.4223C32.4334 12.6073 33.9596 7.56186 37.5612 4.17715C43.1447 -1.07148 51.9263 -0.802457 57.1749 4.77833C60.2796 4.16617 63.2553 3.02696 65.9785 1.41284C64.9436 4.62186 62.7777 7.34774 59.8843 9.0799C62.6322 8.75598 65.3169 8.02029 67.8451 6.89754C65.9839 9.68656 63.6396 12.116 60.9275 14.0787Z" fill="#101010"/>
</svg>
