<svg width="135" height="32" viewBox="0 0 135 32" fill="none" xmlns="http://www.w3.org/2000/svg">
<g opacity="0.5" clip-path="url(#clip0_1833_679)">
<path d="M14.6525 27.8735C14.0631 29.0524 13.221 29.9788 12.2947 30.5682C11.2841 31.1577 9.93676 31.4946 8.16834 31.4946C5.81044 31.4946 4.04202 30.8209 2.69465 29.4735C1.34729 28.1261 0.757812 26.1893 0.757812 23.7472V11.7051H4.12623V23.2419C4.12623 25.0103 4.54729 26.3577 5.4736 27.284C6.31571 28.1261 7.57887 28.6314 9.26308 28.6314C11.1999 28.6314 12.6315 28.0419 13.642 26.9472C14.6526 25.7682 15.1578 24.084 15.1578 21.8103V11.7051H18.5262V30.9893H15.1578V27.8735H14.6525Z" fill="white"/>
<path d="M29.4739 28.042H35.0318V30.9894H32.4213C30.316 30.9894 28.716 30.4842 27.7055 29.4736C26.695 28.4631 26.1897 26.8631 26.1897 24.7578V14.7368H21.7266V11.7894H26.1055V6.56836H29.4739V11.7894H34.5266V14.7368H29.4739V28.042Z" fill="white"/>
<path d="M42.5265 14.7367C43.2002 12.7156 44.8002 11.7051 47.3265 11.7051H48.9265V15.0735H46.8212C45.137 15.0735 43.9581 15.4946 43.116 16.2524C42.2738 17.0103 41.8528 18.3577 41.8528 20.1261V31.0735H38.4844V11.7051H41.8528V14.6524H42.5265V14.7367Z" fill="white"/>
<path d="M65.8518 27.8735C65.2623 29.0524 64.4202 29.9788 63.4939 30.5682C62.4833 31.1577 61.136 31.4946 59.3676 31.4946C57.0097 31.4946 55.2412 30.8209 53.8939 29.4735C52.5465 28.1261 51.957 26.1893 51.957 23.7472V11.7051H55.3254V23.2419C55.3254 25.0103 55.7465 26.3577 56.6728 27.284C57.5991 28.2103 58.8623 28.6314 60.5465 28.6314C62.4833 28.6314 63.9149 28.0419 64.9254 26.9472C65.936 25.7682 66.4412 24.084 66.4412 21.8103V11.7051H69.8097V30.9893H66.4412V27.8735H65.8518Z" fill="white"/>
<path d="M86.9889 11.9581C88.2521 12.4634 89.2626 13.3055 90.0205 14.316C90.7784 15.3265 91.1995 16.5055 91.1995 17.8528H87.6626C87.4942 15.4107 85.7258 14.1476 82.4416 14.1476C81.01 14.1476 79.9153 14.4002 79.1574 14.9897C78.3995 15.4949 77.9784 16.2528 77.9784 17.0949C77.9784 17.8528 78.231 18.3581 78.7363 18.6107C79.2416 18.9476 80.1679 19.2002 81.431 19.537L84.9679 20.2949C86.9047 20.716 88.3363 21.2212 89.3468 21.9791C90.3574 22.737 90.8626 23.916 90.8626 25.516C90.8626 26.6949 90.5258 27.7897 89.8521 28.716C89.1784 29.6423 88.1679 30.4002 86.9047 30.9055C85.6416 31.4107 84.21 31.6633 82.61 31.6633C79.6626 31.6633 77.3889 30.9897 75.7889 29.6423C74.1889 28.2949 73.1784 26.6107 72.9258 24.4212H76.4626C76.9679 27.2844 78.9889 28.716 82.6942 28.716C84.2942 28.716 85.5574 28.4634 86.3995 27.8739C87.2416 27.2844 87.6626 26.6107 87.6626 25.7686C87.6626 25.2634 87.4942 24.8423 87.2416 24.5055C86.9889 24.2528 86.5679 24.0002 86.0626 23.8318C85.5574 23.6634 84.7153 23.4949 83.5363 23.2423L79.9995 22.4844C78.3153 22.1476 76.9679 21.5581 76.0416 20.716C75.1153 19.8739 74.61 18.6949 74.61 17.1791C74.61 15.3265 75.3679 13.8949 76.7995 12.8002C78.3153 11.7055 80.1679 11.2002 82.5258 11.2002C84.2942 11.2002 85.7258 11.4528 86.9889 11.9581Z" fill="white"/>
<path d="M100.97 28.042H106.528V30.9894H103.917C101.812 30.9894 100.212 30.4842 99.2016 29.4736C98.1911 28.4631 97.6858 26.8631 97.6858 24.7578V14.7368H93.2227V11.7894H97.6858V6.56836H101.054V11.7894H106.023V14.7368H101.054V28.042H100.97Z" fill="white"/>
<path d="M129.686 4.79985V19.2841H115.791V4.79985H129.686V0.420898H121.18L111.496 7.91563V12.7156C111.496 19.0314 116.633 24.3367 123.033 24.2525C129.18 24.1683 134.149 19.1156 134.149 12.9683V4.79985H129.686Z" fill="white"/>
</g>
<defs>
<clipPath id="clip0_1833_679">
<rect width="134.737" height="32" fill="white"/>
</clipPath>
</defs>
</svg>
